<?xml version="1.0" encoding="utf-8"?>
<!-- Generator: Adobe Illustrator 22.0.1, SVG Export Plug-In . SVG Version: 6.00 Build 0)  -->
<svg version="1.1" id="Layer_1" xmlns="http://www.w3.org/2000/svg" xmlns:xlink="http://www.w3.org/1999/xlink" x="0px" y="0px"
	 viewBox="0 0 500 500" style="enable-background:new 0 0 500 500;" xml:space="preserve">
<style type="text/css">
	.st0{display:none;stroke:#000000;stroke-width:5;stroke-miterlimit:10;}
	.st1{fill:#FFFFFF;}
	.st2{font-family:'KevinWild';}
	.st3{font-size:176.9777px;}
	.st4{font-family:'Lato-Light';}
	.st5{font-size:66.5694px;}
	.st6{letter-spacing:1.2;}
	.st7{font-size:42.3681px;}
	.st8{letter-spacing:2;}
	.st9{display:none;fill:none;stroke:#FFFFFF;stroke-width:5;stroke-miterlimit:10;}
</style>
<rect x="58.8" y="55.3" class="st0" width="384.1" height="386"/>
<rect x="1.6" y="-2.1" class="st0" width="498.4" height="500.9"/>
<text transform="matrix(0.9302 0.367 -0.367 0.9302 54.316 175.336)" class="st1 st2 st3">D</text>
<text transform="matrix(0.8392 0 0 1 36.9497 368.334)" class="st1 st4 st5 st6">DILLON   DESIGN</text>
<text transform="matrix(1 0 0 1 137.4766 430.6191)" class="st1 st4 st7 st8">-STUDIOS-</text>
<path class="st9" d="M442.8,306.3V52.8V306.3z"/>
<path class="st9" d="M58.8,306.3l0-253.5L58.8,306.3z"/>
<path class="st9" d="M442.8,443.8v-60.3V443.8z"/>
<path class="st9" d="M58.8,443.8V385V443.8z"/>
<path class="st9" d="M56.3,55.3c0,0,86.7,0,193.6,0s193.6,0,193.6,0s-86.7,0-193.6,0S56.3,55.3,56.3,55.3z"/>
<path class="st9" d="M56.3,441.3c0,0,86.7,0,193.6,0s193.6,0,193.6,0s-86.7,0-193.6,0S56.3,441.3,56.3,441.3z"/>
</svg>
